<?xml version="1.0" encoding="iso-8859-1"?>
<!-- Generator: Adobe Illustrator 19.0.0, SVG Export Plug-In . SVG Version: 6.00 Build 0)  -->
<svg version="1.1" id="Capa_1" xmlns="http://www.w3.org/2000/svg" xmlns:xlink="http://www.w3.org/1999/xlink" x="0px" y="0px"
	 viewBox="0 0 512 512" style="enable-background:new 0 0 512 512;" xml:space="preserve">
<g>
	<g>
		<path d="M255.972,0.001C155.788-0.356,75.818,81.419,75.995,180.94c0.107,60.401,30.05,116.996,81.987,150.798
			c14.173,9.225,22.977,24.651,22.977,40.259v34.984c0,19.559,12.543,36.235,30.005,42.428v17.583
			c0,24.817,20.191,45.007,45.008,45.007c24.818,0,45.008-20.191,45.008-45.008v-17.583c17.462-6.193,30.005-22.869,30.005-42.428
			v-36.028c0-15.065,8.51-29.901,22.208-38.717c51.855-33.375,82.811-89.935,82.811-151.297
			C436.006,81.45,355.448,0.355,255.972,0.001z M270.975,466.992c0,8.272-6.73,15.003-15.003,15.003
			c-8.273,0-15.003-6.73-15.003-15.003v-15.003h30.006V466.992z M300.981,406.981c0,8.273-6.73,15.003-15.003,15.003h-60.011
			c-8.273,0-15.003-6.73-15.003-15.003v-15.003h90.017V406.981z M336.955,307.005c-19.537,12.574-32.552,33.073-35.386,54.968
			h-30.593v-39.794l25.611-25.611c5.859-5.859,5.859-15.358,0-21.217c-5.858-5.859-15.358-5.859-21.217,0l-19.398,19.397
			l-19.397-19.398c-5.858-5.859-15.358-5.859-21.217,0c-5.859,5.859-5.859,15.358,0,21.217l25.611,25.611v39.794h-30.721
			c-3.113-22.008-16.273-42.61-35.9-55.383c-43.819-28.518-68.853-76.542-68.328-127.649
			c0.835-81.333,65.965-148.926,149.254-148.926C338.911,30.014,406,98.189,406,180.94C406,232.052,380.189,279.178,336.955,307.005
			z"/>
	</g>
</g>
<g>
	<g>
		<path d="M285.978,150.935h-35.914l19.372-39.387c3.657-7.435,0.593-16.427-6.842-20.084c-7.436-3.656-16.427-0.594-20.084,6.842
			l-30.005,61.011c-4.9,9.961,2.371,21.622,13.462,21.622h35.737l-19.149,38.299c-3.706,7.411-0.701,16.422,6.709,20.129
			c7.412,3.707,16.424,0.7,20.129-6.709l30.006-60.011C304.373,162.697,297.129,150.935,285.978,150.935z"/>
	</g>
</g>
<g>
</g>
<g>
</g>
<g>
</g>
<g>
</g>
<g>
</g>
<g>
</g>
<g>
</g>
<g>
</g>
<g>
</g>
<g>
</g>
<g>
</g>
<g>
</g>
<g>
</g>
<g>
</g>
<g>
</g>
</svg>
